<?xml version="1.0" encoding="utf-8"?>
<!-- Generator: Adobe Illustrator 22.1.0, SVG Export Plug-In . SVG Version: 6.00 Build 0)  -->
<svg version="1.1" id="分離模式" xmlns="http://www.w3.org/2000/svg" xmlns:xlink="http://www.w3.org/1999/xlink" x="0px"
	 y="0px" viewBox="0 0 1417.3 1417.3" style="enable-background:new 0 0 1417.3 1417.3;" xml:space="preserve">
<style type="text/css">
	.st0{fill:#FFFFFF;}
	.st1{fill:none;stroke:#54CCDD;stroke-width:30;stroke-miterlimit:10;}
	.st2{fill:#54CCDD;}
</style>
<circle class="st0" cx="708.7" cy="708.7" r="708.7"/>
<circle class="st1" cx="708.7" cy="708.7" r="654.3"/>
<path class="st2" d="M1194.4,709.1c-30.1-30.1-38.7-77.5-17.2-116.2c12.9-25.8,17.2-60.3,4.3-90.4c-12.9-30.1-38.7-47.4-68.9-56
	c-43-8.6-73.2-47.4-77.5-90.4c-4.3-30.1-21.5-60.3-47.4-77.5c-25.8-17.2-60.3-21.5-86.1-8.6c-43,12.9-86.1,0-111.9-34.4
	C772.6,209.9,742.4,197,708,197c-30.1,0-60.3,12.9-77.5,38.7c-30.1,34.4-73.2,47.4-116.2,34.4c-30.1-12.9-60.3-8.6-86.1,8.6
	c-25.8,17.2-43,43-47.4,77.5c-4.3,43-34.4,81.8-77.5,90.4c-30.1,4.3-56,25.8-68.9,56c-12.9,30.1-12.9,60.3,4.3,86.1
	c21.5,38.7,12.9,86.1-17.2,116.2c-21.5,21.5-30.1,51.7-25.8,86.1c4.3,34.4,21.5,56,51.7,73.2c38.7,21.5,60.3,64.6,47.4,107.6
	c-4.3,30.1,0,60.3,21.5,86.1c17.2,25.8,47.4,38.7,81.8,34.4c43-4.3,86.1,21.5,99,64.6c12.9,30.1,34.4,51.7,64.6,60.3
	c30.1,8.6,60.3,4.3,86.1-17.2c34.4-25.8,81.8-25.8,120.5,0c25.8,17.2,56,25.8,86.1,17.2s56-30.1,64.6-60.3
	c17.2-38.7,56-68.9,99-64.6c30.1,0,60.3-8.6,81.8-34.4c21.5-21.5,30.1-56,21.5-86.1c-8.6-43,12.9-86.1,47.4-107.6
	c25.8-17.2,47.4-43,51.7-73.2C1224.5,760.7,1215.9,730.6,1194.4,709.1z M656.3,941.5L462.6,752.1l81.8-81.8l111.9,107.6l241.1-249.7
	l81.8,81.8L656.3,941.5z"/>
</svg>
